<?xml version="1.0" encoding="utf-8"?>
<!-- Generator: Adobe Illustrator 27.7.0, SVG Export Plug-In . SVG Version: 6.00 Build 0)  -->
<svg version="1.1" id="레이어_1" xmlns="http://www.w3.org/2000/svg" xmlns:xlink="http://www.w3.org/1999/xlink" x="0px"
	 y="0px" viewBox="0 0 745.41 203.29" style="enable-background:new 0 0 745.41 203.29;" xml:space="preserve">
<style type="text/css">
	.st0{fill:#1E1E1E;}
</style>
<g>
	<polygon class="st0" points="208.56,23.45 183.4,107.23 159.95,23.45 119.73,23.45 96.27,107.23 71.12,23.45 19.2,23.45 
		68.89,179.84 114.14,179.84 139.84,101.65 165.53,179.84 210.8,179.84 260.48,23.45 	"/>
	<polygon class="st0" points="581.51,23.45 525.87,23.45 480.39,77.07 480.39,23.45 430.13,23.45 430.13,179.84 480.39,179.84 
		480.39,141.86 495.49,125.11 530.11,179.84 585.97,179.84 527.89,88.25 	"/>
	<polygon class="st0" points="726.21,64.79 726.21,23.46 598.83,23.46 598.83,179.84 726.21,179.84 726.21,138.51 649.1,138.51 
		649.1,120.64 726.21,120.64 726.21,82.66 649.1,82.66 649.1,64.79 	"/>
	<polygon class="st0" points="347.68,23.45 306.73,23.45 295.71,23.45 240.61,179.84 292.57,179.84 327.2,81.56 361.83,179.84 
		413.79,179.84 358.69,23.45 	"/>
</g>
</svg>
