<?xml version="1.0" encoding="utf-8"?>
<!-- Generator: Adobe Illustrator 27.4.1, SVG Export Plug-In . SVG Version: 6.00 Build 0)  -->
<svg version="1.1" id="레이어_1" xmlns="http://www.w3.org/2000/svg" xmlns:xlink="http://www.w3.org/1999/xlink" x="0px"
	 y="0px" viewBox="0 0 200 60" style="enable-background:new 0 0 200 60;" xml:space="preserve">
<style type="text/css">
	.st0{fill:#1E1E1E;}
</style>
<g>
	<path class="st0" d="M12.1,10.95h13.48l5.45,18.49l6.22-18.6h11.12l6.22,18.6l5.45-18.49H73.3l-12.6,38.8H49.47L42.7,30.6
		l-6.77,19.15H24.7L12.1,10.95z"/>
	<path class="st0" d="M80.68,10.89h12.77l16.24,38.8H95.7l-2.04-5.17H80.18L78.2,49.7H64.44L80.68,10.89z M90.48,35.39l-3.52-9.36
		l-3.52,9.36H90.48z"/>
	<path class="st0" d="M111.28,11.03h12.88v14.42l10.95-14.42h14.97l-13.43,16.73l13.71,21.8H135l-7.54-12.22l-3.3,4.02v8.2h-12.88
		V11.03z"/>
	<path class="st0" d="M151.46,11.03h32.86V21.6h-20.2v3.91h18.82v9.3h-18.82v4.18h20.48v10.57h-33.13V11.03z"/>
</g>
</svg>
